<svg width="585" height="224" viewBox="0 0 585 224" fill="none" xmlns="http://www.w3.org/2000/svg">
<path d="M585 6.98208V5.85648L540.891 8.30816L539.151 1.38712L559.442 0.27664L559.396 0H543.938L536.928 0.3836L538.948 8.41624L532.626 8.76792L518.255 6.06536L524.567 0H522.295L516.356 5.70808L509.129 4.34896L513.664 0H511.391L507.229 3.99168L500.262 2.68128L503.019 0H500.755L498.364 2.32456L486.004 0H479.335L464.802 7.27608L458.113 2.68464L463.638 0H460.619L456.863 1.8256L454.203 0H451.66L455.374 2.54912L392.02 33.3374L381.926 27.3958L425.648 5.49472L431.487 9.81288L449.451 0H446.621L431.706 8.14856L427.12 4.7572L436.617 0H433.651L425.922 3.87128L422.655 1.45544L425.406 0H422.528L420.015 1.32944L424.45 4.6088L408.549 12.5737V0H406.599V3.3628L361.11 15.1794L354.723 3.82872L368.904 0H359.047L359.201 0.14448L327.385 8.73376L319.233 0H308.139L255.842 14.2666L248.707 8.8816L266.613 1.53328L273.184 5.6952L288.384 0H284.814L273.512 4.23528L266.892 0.04256L247.525 7.99008L236.937 0H233.825L197.184 21.2005L189.869 17.747L220.15 0H217.42L188.356 17.033L180.825 13.4775L202.148 0H199.512L178.522 13.2675H155.748L171.827 3.90208L124.24 4.66816L128.061 0H125.907L120.898 6.11912L100.887 12.9074L82.134 0H79.5941L99.1858 13.4842L83.4707 18.8154L58.8529 0H56.4125L68.1515 8.97176L50.622 15.4616L30.538 0H28.1044L48.9791 16.0703L31.2877 22.6201L2.30002 0H0V0.0952L11.3529 8.95384L0 12.8929V14.2016L12.5141 9.85992L20.2888 15.927L0 22.8032V24.1035L21.451 16.8336L27.1188 21.2564L0 30.4987V31.8024L28.2758 22.1591L36.3919 28.4922L0 40.9461V42.2498L37.5531 29.3983L42.6426 33.3693L0 49.2649V50.5999L44.537 33.9982L51.1602 31.9519L41.9757 47.0932L15.7082 53.6592L35.8264 63.821L35.7737 64.185L0 72.8325V75.2623L35.4081 66.7038L34.3171 74.2325L0 82.5093V83.7239L34.1338 75.4914L31.2751 95.2112L14.937 89.6487L0 91.3466V94.7722L13.8791 93.1946L29.0257 98.3511L0 116.089V117.724L30.7447 98.9363L45.8182 104.068L0 133.28V135.799L27.0962 150.806L18.3251 156.486L31.4691 164.361L0 181.9V183.461L12.0568 176.741L30.9572 192.818L18.1311 198.068L0 194.063V195.263L16.2269 198.847L0 205.489V208.239L20.592 199.811L28.5139 201.561L0 213.571V216.348L32.8507 202.512L73.906 211.411L63.6763 224H65.8291L75.7702 211.765L93.8262 214.594L94.7466 214.805L94.7885 214.745L108.292 216.861L108.624 216.933L108.636 216.915L153.844 224H161.251L127.033 218.637L132.375 209.451L192.133 219.5L190.873 224H194.823L202.037 198.234L231.564 200.254L229.191 224H231.144L233.504 200.386L259.171 202.142V224H261.121V202.275L286.872 204.037L287.526 224H289.477L288.827 204.171L298.936 204.863V221.246H313.69V224H315.64V220.126H300.886V213.649L369.272 207.227L370.731 216.138L359.116 217.666L360.839 224H362.812L361.323 218.524L370.915 217.263L372.018 224H373.977L371.201 207.046L412.123 203.203L414.144 215.071L441.671 213.776L443.684 224H445.647L443.397 212.57L415.898 213.865L414.051 203.022L429.41 201.58L478.047 215.769L472.096 224H474.208L480.54 215.24L432.667 201.274L440.021 200.583L496.893 215.861V221.212L499.224 221.489L520.338 224H549.188L502.743 218.476V213.723L481.265 207.953L485.543 201.798L554.65 224H558.645L545.085 219.644L565.564 191.902L583.353 197.659L563.716 224H565.837L573.32 213.964L585 217.684V216.404L574.091 212.929L585 198.296V196.907L526.991 178.132L538.489 164.097L507.172 154.51L511.093 149.81L542.901 158.892L585 194.921V192.912L544.377 158.145L544.232 158.021L510.189 148.301L505.45 153.982L429.563 130.75L443.414 120.696L585 164.126V162.856L555.962 153.949L567.105 143.48L575.554 146.095L569.058 152.65L585 157.469V156.202L571.75 152.198L577.271 146.626L585 149.019V147.747L568.124 142.523L578.635 132.648L585 134.729V133.44L565.185 126.96L580.711 113.369L565.13 108.376L583.578 92.8094L585 93.231V91.9699L569.011 87.2256L582.012 59.0234L585 58.7048V55.2877L572.081 56.6642L549.17 44.2131L557.854 39.6407L585 53.5326V52.0324L559.299 38.8802L585 25.3478V23.8286L553.777 40.2685L540.396 32.9566L561.93 18.3842L585 14.9178V12.6028L580.724 13.2451H542.446L533.616 14.9509L531.51 11.8479L533.159 9.86328L585 6.98208ZM517.23 7.05096L531.159 9.67008L520.691 22.265L497.824 25.7006L517.23 7.05096ZM394.955 103.534L430.698 89.3973L441.491 94.0733L409.086 106.842L394.955 103.534ZM407.161 107.601L406.155 107.997L397.455 105.329L407.161 107.601ZM479.516 185.064L471.319 182.763L485.475 165.98L493.321 168.519L479.516 185.064ZM495.023 169.07L504.266 172.062L492.539 188.719L481.268 185.556L495.023 169.07ZM469.567 182.272L453.188 177.675L467.401 160.13L483.773 165.428L469.567 182.272ZM92.2837 148.711L97.928 150.774L90.6058 157.946L85.1926 155.522L92.2837 148.711ZM82.094 154.133L75.3304 151.104L62.166 156.317L56.5744 151.862L74.5446 141.794L89.0243 147.477L82.094 154.133ZM99.3544 30.9557L103.444 29.6593L111.57 29.2466L125.135 42.5841L107.83 46.7673L92.9701 32.8955L99.3691 30.9669L99.3544 30.9557ZM395.27 176.531L380.672 172.361L389.746 161.115L404.291 165.197L395.27 176.531ZM406.044 165.689L419.371 169.43L405.835 187.69L391.58 183.86L406.044 165.689ZM378.105 172.878L394.459 177.55L389.815 183.386L362.426 176.029L370.887 166.443L354.354 161.197L359.741 152.693L387.993 160.623L378.105 172.878ZM351.952 161.714L368.296 166.901L360.659 175.554L326.887 166.481L339.052 146.886L357.979 152.198L351.952 161.714ZM325.113 166.005L303.635 160.235L316.977 140.69L337.29 146.392L325.113 166.005ZM303.839 150.732L279.394 129.769L282.622 120.85L319.735 103.682L329.966 112.516L329.908 112.544L303.839 150.732ZM287.247 180.691L217.378 168.901L223.88 161.205L234.042 158.454L234.76 158.749L263.825 153.25L299.33 162.788L287.247 180.691ZM294.51 173.027L347.609 181.773L345.011 190.439L289.124 181.008L294.51 173.027ZM199.367 150.699C174.456 143.531 136.968 132.643 134.253 131.579C134.147 131.501 134.004 131.438 133.831 131.399C133.499 131.324 132.986 131.34 132.633 131.628C132.597 131.658 132.554 131.696 132.499 131.747C132.407 131.832 132.282 131.954 132.116 132.118C131.819 132.413 131.391 132.846 130.845 133.407C129.927 134.349 128.658 135.664 127.076 137.317C125.028 139.455 122.972 141.616 122.09 142.543L113.342 140.103L131.631 122.187L157.463 119.787C173.525 125.862 190.651 132.509 194.216 134.148C194.297 135.358 194.231 138.456 194.103 141.1L194.06 141.992L230.413 156.96L220.973 159.516L218.886 161.986L197.106 155.557L200.153 150.925L199.367 150.699ZM102.207 151.01L112.352 141.072L138.767 148.439L129.937 161.144L102.207 151.01ZM129.202 162.203L111.124 188.218L94.8889 185.455L108.898 166.139L93.7082 159.336L101.221 151.977L129.202 162.203ZM93.4576 116.381L74.1975 109.824L81.7693 83.2059L103.147 110.074L91.1089 113.266L93.4576 116.381ZM85.2169 54.6638L103.098 50.3412L107.96 56.4704L90.5989 60.6575L85.2169 54.6638ZM88.7962 61.0926L57.4841 68.6448L59.2351 60.9442L83.4142 55.0995L88.7962 61.0926ZM276.586 34.0301L290.601 30.347L304.326 43.3759L297.72 53.4615L269.958 53.0421L263.52 45.2749L278.62 36.6173L276.586 34.0301ZM302.371 82.0652L159.409 116.499L158.778 116.261L154.408 116.667L147.932 109.323L215.435 92.3339L209.306 85.6738L290.795 65.702L300.679 75.6252L298.287 76.6842L302.371 82.0652ZM203.692 108.262L234.593 100.82L253.997 109.996L223.749 117.241L203.692 108.262ZM221.682 117.736L185.332 126.442C183.436 125.701 181.349 124.891 179.079 124.014C173.066 121.691 167.022 119.388 163.327 117.984L201.629 108.759L221.682 117.736ZM284.499 103.905L288.435 107.612L299.807 103.39L306.495 106.915L317.666 101.895L318.65 102.745L281.127 120.103L280.855 120.229L277.713 128.91L242.79 113.894L284.499 103.905ZM306.596 105.448L300.014 101.979L289.057 106.047L285.741 102.923L281.917 98.8775L305.105 91.0487L316.582 100.96L306.596 105.448ZM279.304 98.4603L283.523 102.925L256.034 109.509L236.625 100.33L298.573 85.409L304.023 90.1146L279.304 98.4603ZM130.939 83.7043L149.974 78.8962L164.661 95.3988L140.809 101.245L132.611 91.9486L136.325 90.9244L130.939 83.7043ZM227.063 58.497L212.468 62.3252L204.404 53.0023L219.405 49.0594L219.381 49.1338L227.063 58.497ZM173.678 64.316L178.23 69.3129L161.748 73.4759L157.327 68.5938L173.678 64.316ZM156.426 67.5987L155.136 66.1746L171.561 61.9937L172.772 63.3226L156.426 67.5987ZM189.057 69.0256L194.948 75.5306L157.879 85.3171L151.763 78.4448L189.057 69.0256ZM195.849 76.5257L199.434 80.4849L217.005 75.9567L221.674 81.4251L166.459 94.9581L158.767 86.3156L195.849 76.5257ZM217.926 74.4918L200.315 79.0306L190.757 68.4751L190.791 68.4018L216.022 68.9511L216.141 69.0883L216.58 68.9634L235.998 69.3857L241.824 76.4865L223.47 80.985L217.926 74.4918ZM229.668 59.0447L246.766 54.5597L261.027 71.7802L243.619 76.0469L229.668 59.0447ZM235.062 68.245L217.253 67.8569L213.337 63.3287L227.895 59.5101L235.062 68.245ZM215.034 67.8087L191.304 67.2924L197.014 54.9444L202.629 53.4682L215.034 67.8087ZM194.081 52.5627L189.757 47.7669L197.239 45.7324L194.081 52.5627ZM193.336 54.1727L187.406 66.9956L180.019 68.861L166.549 54.0775L187.995 48.2462L193.336 54.1727ZM170.655 60.9997L154.234 65.179L148.601 58.9585L164.785 54.5574L170.655 60.9997ZM159.958 73.9273L129.958 81.5046L118.555 67.1283L146.837 59.4378L159.958 73.9273ZM207.506 86.1151L212.73 91.7918L147.049 108.322L141.691 102.246L207.506 86.1151ZM290.445 64.5702L262.822 71.3401L248.41 53.9381L255.549 49.8445L263.541 58.9943L293.893 59.304L290.445 64.5702ZM264.755 57.8866L257.003 49.0112L262.057 46.1138L268.712 54.1436L296.994 54.5709L294.623 58.1913L264.755 57.8866ZM246.669 53.3534L228.837 58.0317L221.414 48.9849L221.577 48.4887L274.813 34.496L276.288 36.372L246.669 53.3534ZM219.847 47.7114L197.663 53.5422L201.527 45.1881L222.533 39.5164L219.847 47.7114ZM197.895 44.315L117.747 66.1086L113.392 60.6172L188.953 40.763L197.903 44.2971L197.895 44.315ZM155.435 48.3381L146.818 39.7734L151.189 38.7167L160.643 42.7162L162.925 42.0935L166.202 45.509L155.435 48.3381ZM153.654 48.8062L141.479 52.0055L133.155 43.0763L145.007 40.2114L153.654 48.8062ZM139.702 52.472L131.758 54.5597L123.664 45.3701L131.349 43.5126L139.702 52.472ZM129.983 55.0262L122.297 57.0455L113.931 47.7232L121.862 45.8058L129.983 55.0262ZM120.522 57.512L112.583 59.598L104.896 49.9066L112.128 48.1589L120.522 57.512ZM89.4836 51.2019L83.6404 45.4395L99.9726 41.5694L106.012 47.2069L89.4836 51.2019ZM108.768 57.4902L128.173 81.9554L125.832 82.5468L131.269 89.8341L108.624 96.077L117.406 106.294L104.918 109.605L82.6234 81.5847L104.498 76.1331L91.4959 61.656L108.768 57.4902ZM122.675 107.364L113.866 97.1163L130.852 92.4336L152.388 116.855L103.065 121.438L100.466 118.767L99.175 118.327L96.2013 114.382L122.675 107.364ZM126.636 122.651L109.883 139.063L104.238 137.23L118.644 123.394L126.636 122.651ZM298.326 158.809L264.201 149.642L235.753 155.024L199.99 140.3C200.018 139.611 200.055 138.604 200.079 137.575C200.168 133.665 199.985 133.245 199.864 132.967C199.582 132.318 198.822 131.935 197.024 131.153C195.965 130.692 194.438 130.059 192.484 129.273C190.999 128.674 189.25 127.98 187.255 127.195L223.448 118.526L301.861 153.63L298.326 158.809ZM225.515 118.032L240.7 114.395L277.638 130.277L302.972 152.001L302.603 152.542L225.515 118.032ZM300.404 84.9677L304.949 83.8734L313.686 93.5334L327.824 99.1379L324.635 105.89L300.404 84.9677ZM306.839 82.3458L328.416 69.6052L339.271 74.9028L335.38 83.1387L310.305 87.3662L306.754 83.4389L307.527 83.2524L306.839 82.3458ZM305.997 81.237L303.078 77.3914L340.723 60.732L305.997 81.237ZM315.192 92.7702L311.221 88.3792L334.782 84.4071L328.365 97.9916L315.192 92.7702ZM336.977 84.037L366.135 79.1213L368.413 84.3898L334.392 89.5104L336.977 84.037ZM337.575 82.7686L341.477 74.5097L329.779 68.8005L351.581 55.9266L355.379 54.2461L365.665 78.0332L337.575 82.7686ZM302.238 74.9353L292.285 64.9421L306.484 43.2611V43.2606L319.309 23.5614L323.068 35.9447L350.698 38.6249L352.273 41.1578L354.536 51.791L302.238 74.9353ZM305.197 42.0392L291.369 28.9128L275.784 33.0092L270.681 26.5177L316.454 14.1602L318.647 21.3802L305.197 42.0392ZM274.01 33.4757L222.018 47.1408L224.71 38.929L268.916 26.9942L274.01 33.4757ZM240.413 32.2146L231.349 23.4276L241.051 20.781L250.265 29.5546L240.413 32.2146ZM238.639 32.6934L230.886 34.7866L221.64 26.0764L229.58 23.9103L238.639 32.6934ZM229.11 35.266L221.787 37.2428L212.019 28.7011L219.869 26.5597L229.11 35.266ZM220.005 37.7238L199.036 43.3854L189.147 39.4806L167.981 45.0419L164.69 41.6119L210.24 29.1861L220.005 37.7238ZM161.077 40.1178L153.016 36.7074L159.725 27.1275L179.425 35.1126L161.077 40.1178ZM151.214 36.2807L126.948 42.1462L113.718 29.1374L157.783 26.9002L151.214 36.2807ZM98.9371 40.6034L82.6507 44.4623L76.0822 37.9842L91.2385 33.4169L98.9371 40.6034ZM87.671 51.6404L58.4191 58.7115L51.7744 52.9906L81.821 45.8707L87.671 51.6404ZM57.1916 69.93L89.6922 62.0911L101.809 75.5826L80.4472 80.9066L72.3967 109.211L49.9951 101.585L57.1916 69.93ZM55.4034 69.1466L36.3441 73.7436L37.4361 66.2138L57.1535 61.4471L55.4034 69.1466ZM96.1282 121.196L99.956 125.13L113.613 123.861L100.842 136.127L58.3811 122.342L71.7707 112.903L96.1282 121.196ZM103.237 138.191L108.897 140.029L98.9147 149.807L93.2851 147.75L103.237 138.191ZM92.7137 160.31L106.527 166.498L82.5133 199.606L62.8046 189.608L92.7137 160.31ZM94.1353 186.495L110.397 189.263L100.863 202.984L84.2078 200.183L94.1353 186.495ZM112.275 189.582L123.323 191.462L114.248 205.235L102.743 203.3L112.275 189.582ZM113.001 188.537L140.526 148.93L149.669 151.479L124.015 190.412L113.001 188.537ZM151.43 151.971L162.025 154.926L142.423 188.637L128.972 186.054L151.43 151.971ZM123.846 143.032C127.38 139.314 132.211 134.262 133.763 132.718C134.23 132.875 134.907 133.091 135.776 133.362C137.467 133.888 139.959 134.642 143.184 135.602C148.609 137.217 156.183 139.441 165.699 142.21C179.882 146.338 194.241 150.475 197.708 151.474L194.667 156.097L218.033 162.994L213.721 168.099L123.846 143.032ZM216.514 169.923L344.647 191.545L341.208 200.955L207.195 180.953L216.514 169.923ZM346.925 190.762L346.894 190.756L349.827 180.974L295.218 171.978L301.1 163.264L392.948 187.937L392.272 193.242L402.024 195.573L343.197 200.964L346.925 190.762ZM394.319 192.518L394.839 188.445L416.452 194.251L405.692 195.237L394.319 192.518ZM407.603 188.164L421.126 169.922L431.694 172.888L418.161 191.001L407.603 188.164ZM433.448 173.381L460.23 180.898L452.447 192.035L424.801 184.955L433.448 173.381ZM451.435 177.183L360.412 151.635L374.15 129.947L465.698 159.578L451.435 177.183ZM358.65 151.14L339.711 145.825L353.682 123.323L372.428 129.39L358.65 151.14ZM337.949 145.33L317.691 139.644L333.33 116.735L351.958 122.764L337.949 145.33ZM331.482 111.802L326.07 107.129L327.189 104.76L345.089 105.393L331.482 111.802ZM327.71 103.657L329.726 99.3882L366.095 95.4985L347.305 104.349L327.71 103.657ZM330.293 98.1882L333.803 90.757L368.883 85.4767L372.011 92.7114L369.224 94.0246L330.293 98.1882ZM357.094 53.5651L377.585 48.5621L372.968 90.2765L357.094 53.5651ZM379.593 48.0715L415.412 39.3266L443.714 67.6413L377.525 94.6159L374.742 91.8988L379.593 48.0715ZM444.689 68.6174L448.491 72.4214L381.339 98.3405L378.517 95.5853L444.689 68.6174ZM535.145 100.049L545.94 103.509L530.317 115.557L518.74 111.772L535.145 100.049ZM517.024 111.21L499.048 105.332L515.85 93.8661L533.418 99.4958L517.024 111.21ZM534.657 98.6104L517.128 92.993L537.455 79.1224L554.749 84.2537L534.657 98.6104ZM536.236 78.2152L497.325 104.768L485.608 100.936L505.189 88.2672L510.021 89.9696L523.117 78.9723L526.87 80.1226L527.789 79.1342L517.64 76.0256L516.723 77.0134L521.385 78.442L509.458 88.4576L504.817 86.8218L484.245 100.131L476.08 92.0942L511.2 77.0907V66.5678L536.236 63.9005V78.2152ZM482.904 101.034L478.798 104.024L468.543 104.391L456.434 99.1441L470.975 92.8866L472.095 93.7966L474.505 92.7668L482.904 101.034ZM454.812 98.4418L444.828 94.1158L463.45 86.7782L469.848 91.9722L454.812 98.4418ZM443.186 93.4046L432.391 88.7281L454.891 79.8291L462.324 85.8637L443.186 93.4046ZM430.751 88.0169L425.014 85.5316L450.024 75.8783L453.764 78.9152L430.751 88.0169ZM423.301 86.1924L429.057 88.6866L392.795 103.028L384.633 101.118L423.301 86.1924ZM409.324 108.107L424.239 111.598L421.599 112.735L408.093 108.591L409.324 108.107ZM411.248 107.348L443.133 94.7845L453.188 99.1413L426.059 110.815L411.248 107.348ZM454.808 99.843L467.156 105.193L465.171 110.34L447.168 115.756L428.165 111.308L454.808 99.843ZM465.979 111.361L480.127 116.504L471.02 122.718L449.343 116.366L465.979 111.361ZM467.124 110.452L469.036 105.495L479.79 105.111L484.327 101.806L496.048 105.639L481.395 115.638L467.124 110.452ZM497.772 106.202L515.807 112.101L502.37 122.168L483.111 116.207L497.772 106.202ZM517.517 112.66L529.151 116.464L516.37 126.502L504.108 122.707L517.517 112.66ZM530.856 117.023L546.467 122.128L534.493 132.112L518.103 127.039L530.856 117.023ZM548.167 122.684L562.412 127.342L550.978 137.215L536.22 132.647L548.167 122.684ZM547.572 121.2L532.024 116.115L547.657 104.059L562.319 108.757L547.572 121.2ZM547.114 102.603L536.385 99.1637L556.516 84.7784L566.416 87.7162L547.114 102.603ZM555.577 83.239L538.186 78.0786V63.6927L564.623 60.8759L555.577 83.239ZM507.883 63.5034L501.928 56.8294L523.228 45.8192L534.059 52.1696L539.005 49.565L554.121 58.5777L507.883 63.5034ZM505.883 63.7168L505.35 63.7734V75.4023L473.41 89.0467L458.292 76.7732L482.015 55.0099L500.063 57.1945L505.883 63.7168ZM499.827 56.0213L481.085 53.7527L457.072 75.7826L451.501 71.26L450.114 71.7954L417.219 38.8853L423.827 37.2719L412.819 30.823L483.027 18.8838L494.449 28.0431L502.208 37.2518L499.827 56.0213ZM496.73 28.1803L517.501 25.0594L503.373 36.0634L496.73 28.1803ZM508.102 5.334L515.33 6.69368L495.904 25.363L491.172 21.5684L508.102 5.334ZM499.247 3.66856L506.201 4.97672L489.934 20.5761L485.509 17.0274L499.247 3.66856ZM481.603 0.35056L497.348 3.31184L483.888 16.4013L461.534 20.2026L457.463 12.4354L481.603 0.35056ZM456.625 3.40816L463.332 8.01192L455.233 12.0663L459.665 20.5206L405.496 29.7321L417.04 36.4952L392.916 42.3847L385.135 38.1511L456.625 3.40816ZM390.528 34.0626L382.213 38.1041L390.959 42.863L356.397 51.301L354.258 41.2546L380.454 28.1333L390.528 34.0626ZM406.599 4.592V13.5503L353.666 40.0658L352.485 38.169L365.783 23.4847L361.713 16.2518L406.599 4.592ZM363.677 23.3834L350.887 37.5077L324.753 34.9726L322.186 26.5199L359.925 16.7166L363.677 23.3834ZM359.322 15.6442L321.841 25.3809L320.745 21.7722L357.6 12.5849L359.322 15.6442ZM352.943 4.3092L356.997 11.5142L320.4 20.6371L318.284 13.6662L352.943 4.3092ZM317.062 0.04592L325.619 9.21088L311.477 13.0284L302.744 3.95136L317.062 0.04592ZM300.98 4.43296L309.709 13.5061L294.006 17.7453L285.196 8.7388L300.98 4.43296ZM283.431 9.2204L292.238 18.223L280.264 21.4553L271.206 12.5552L283.431 9.2204ZM269.438 13.0374L278.492 21.9341L266.951 25.0494L258.011 16.1543L269.438 13.0374ZM256.244 16.6365L265.18 25.5276L252.039 29.0752L242.822 20.2983L256.244 16.6365ZM235.391 0.6832L254.042 14.7571L240.606 18.4229L224.905 6.7508L235.391 0.6832ZM223.52 7.55272L238.803 18.9146L229.309 21.5046L215.577 12.1481L223.52 7.55272ZM214.198 12.9461L227.488 22.0013L219.571 24.1612L207.951 16.5609L214.198 12.9461ZM206.574 17.3572L217.74 24.6607L209.357 26.9472L198.697 21.9145L206.574 17.3572ZM179.385 14.3875H179.682L207.411 27.4781L181.447 34.561L160.744 26.1699L179.385 14.3875ZM176.751 14.3875L158.816 25.7236L104.757 28.4682L115.873 14.8893L153.428 14.3875H176.751ZM123.311 5.80384L167.032 5.09992L153 13.2726L116.8 13.757L123.311 5.80384ZM119.424 7.92008L110.132 19.2702L102.153 13.7782L119.424 7.92008ZM100.451 14.3556L109.217 20.3885L102.405 28.709L98.1718 30.0518L84.6485 19.7159L100.451 14.3556ZM69.3264 9.86944L81.7811 19.3883L63.6928 25.5242L51.791 16.3615L69.3264 9.86944ZM44.3235 32.7925L32.446 23.5239L50.1482 16.9697L63.1771 26.9998L82.9598 20.2894L96.4333 30.5872L64.739 40.138L53.2574 30.0636L52.1099 30.3867L44.3235 32.7925ZM19.3011 53.9829L43.5367 47.9248L53.1745 32.0354L64.077 41.6018L74.3535 38.505L80.8304 44.8935L48.8329 52.4765L56.588 59.1539L37.8008 63.695L37.8505 63.3522L19.3011 53.9829ZM33.1402 95.8457L36.1618 75.0019L55.1119 70.4318L48.1699 100.963L33.1402 95.8457ZM47.5293 104.651L70.0742 112.326L55.4092 122.664L99.841 137.089L90.0266 146.514L62.4166 135.677L26.482 135.095L50.1637 119.529L33.4464 113.63L47.5293 104.651ZM20.9771 156.457L29.796 150.745L0.5967 134.573L32.1185 114.476L47.1773 119.79L22.2914 136.148L61.7896 136.788L72.9027 141.15L32.8663 163.58L20.9771 156.457ZM32.8185 165.17L32.8204 165.171L55.1636 152.653L61.7009 157.862L75.2602 152.492L81.0849 155.102L49.879 185.073L44.9104 187.107L23.9538 170.11L32.8185 165.17ZM13.4784 175.949L22.5381 170.9L43.3222 187.756L32.5455 192.167L13.4784 175.949ZM30.3829 200.773L22.4962 199.031L52.8079 186.624L84.1844 156.49L89.6113 158.921L59.3356 188.579L30.3829 200.773ZM74.6967 210.385L34.7266 201.722L61.5049 190.443L81.7216 200.699L74.6967 210.385ZM93.6224 213.401L76.5599 210.727L83.4532 201.223L100.136 204.029L93.6224 213.401ZM107.439 215.566L95.5159 213.698L102.016 204.345L113.555 206.286L107.439 215.566ZM125.149 218.342L109.33 215.863L115.432 206.601L130.503 209.135L125.149 218.342ZM131.121 208.072L116.124 205.55L128.281 187.102L141.805 189.699L131.121 208.072ZM192.445 218.386L132.993 208.388L163.794 155.419L175.722 158.746L157.228 190.587L157.131 190.756L162.358 200.719L179.525 202.268L183.144 196.941L198.161 197.969L192.445 218.386ZM198.47 196.862L181.876 195.727L178.278 201.022L164.448 199.773L174.303 184.684L183.08 186.528L188.233 179.106L195.533 180.732L196.238 179.688L179.663 175.996L178.958 177.04L186.415 178.701L181.97 185.102L173.157 183.25L163.216 198.471L159.177 190.773L177.491 159.239L212.87 169.107L202.956 180.839L198.47 196.862ZM300.886 212.514V203.868L202.347 197.127L206.576 182.017L340.807 202.052L340.707 202.326L419.599 195.097L436.892 199.742L300.886 212.514ZM479.495 207.478L419.929 191.476L424.031 185.984L483.797 201.29L479.495 207.478ZM484.52 200.249L454.229 192.491L461.986 181.391L491.81 189.761L484.52 200.249ZM486.272 200.749L493.955 189.694L505.979 172.616L524.502 178.611L504.996 206.764L486.272 200.749ZM563.855 191.349L543.373 219.094L526.189 213.573L546.57 185.754L563.855 191.349ZM544.86 185.2L524.476 213.022L506.713 207.316L526.217 179.166L544.86 185.2ZM506.328 155.52L535.934 164.584L525.288 177.58L495.867 168.058L506.328 155.52ZM504.606 154.993L494.165 167.507L439.65 149.862L451.256 138.661L504.606 154.993ZM449.533 138.134L437.95 149.312L414.464 141.71L428.333 131.643L449.533 138.134ZM412.744 141.154L334.049 115.682L334.797 114.586L372.839 96.6672L379.447 103.12L382.399 101.98L441.666 120.16L412.744 141.154ZM442.824 119.245L423.498 113.317L426.345 112.091L445.762 116.637L442.824 119.245ZM444.549 119.774L447.56 117.102L469.731 123.598L465.788 126.289L444.549 119.774ZM467.546 126.828L481.828 117.082L501.168 123.069L487.841 133.054L467.546 126.828ZM489.585 133.589L502.907 123.607L515.208 127.415L502.359 137.507L489.585 133.589ZM504.096 138.04L516.941 127.952L533.381 133.04L521.122 143.262L504.096 138.04ZM554.239 153.42L522.852 143.793L535.107 133.575L549.893 138.152L538.233 148.221L539.857 148.841L551.618 138.686L565.386 142.947L554.239 153.42ZM576.94 132.093L566.405 141.99L552.702 137.749L564.111 127.898L576.94 132.093ZM577.931 113.761L563.488 126.405L549.271 121.756L564.028 109.305L577.931 113.761ZM581.833 92.2914L563.419 107.827L548.832 103.153L568.172 88.2375L581.833 92.2914ZM579.89 59.2497L567.236 86.6986L557.365 83.7698L566.716 60.653L579.89 59.2497ZM569.709 56.9167L556.418 58.333L540.443 48.8079L547.729 44.9719L569.709 56.9167ZM552.336 41.0273L534.131 50.6117L523.313 44.2686L501.867 55.3543L504.151 37.3447L520.503 24.6086L521.351 24.481L538.394 33.4085L552.336 41.0273ZM538.967 32.1927L523.599 24.1433L558.643 18.8782L538.967 32.1927ZM542.765 14.3651H573.27L536.925 19.8257L534.324 15.9953L542.765 14.3651ZM535.025 20.1113L523.16 21.8938L530.357 13.2339L535.025 20.1113Z" fill="url(#paint0_radial_23_5)"/>
<defs>
<radialGradient id="paint0_radial_23_5" cx="0" cy="0" r="1" gradientUnits="userSpaceOnUse" gradientTransform="translate(292.5 112) rotate(90) scale(112 292.5)">
<stop stop-color="white" stop-opacity="0.15"/>
<stop offset="1" stop-color="white" stop-opacity="0"/>
</radialGradient>
</defs>
</svg>
