<svg width="11" height="11" viewBox="0 0 11 11" fill="none" xmlns="http://www.w3.org/2000/svg">
<path d="M5.22828 6.7699C5.25856 6.80498 5.29907 6.83367 5.34633 6.85349C5.39359 6.87331 5.44618 6.88367 5.49956 6.88367C5.55295 6.88367 5.60554 6.87331 5.6528 6.85349C5.70006 6.83367 5.74057 6.80498 5.77085 6.7699L8.74108 3.34652C8.77546 3.30704 8.79562 3.26079 8.79937 3.2128C8.80312 3.16482 8.79032 3.11693 8.76236 3.07434C8.7344 3.03175 8.69234 2.99609 8.64076 2.97123C8.58918 2.94638 8.53005 2.93327 8.4698 2.93335H2.52933C2.46922 2.93355 2.4103 2.94682 2.35893 2.97173C2.30756 2.99665 2.26568 3.03227 2.23778 3.07476C2.20988 3.11725 2.19702 3.16501 2.2006 3.21289C2.20417 3.26077 2.22403 3.30697 2.25805 3.34652L5.22828 6.7699Z" fill="white"/>
</svg>
