<svg width="72" height="72" viewBox="0 0 72 72" fill="none" xmlns="http://www.w3.org/2000/svg">
<path d="M39.006 24.0209C48.513 24.0209 53.904 30.3119 54.687 37.9109H54.927C56.3798 37.909 57.8188 38.1932 59.1617 38.7475C60.5046 39.3017 61.7252 40.1151 62.7538 41.1411C63.7823 42.1671 64.5986 43.3857 65.1562 44.7273C65.7137 46.0689 66.0014 47.5071 66.003 48.9599C66.001 50.4125 65.713 51.8504 65.1553 53.1917C64.5976 54.5329 63.7812 55.7511 62.7527 56.7769C61.7242 57.8026 60.5037 58.6157 59.161 59.1697C57.8183 59.7238 56.3795 60.0079 54.927 60.0059H23.085C21.6324 60.0079 20.1937 59.7238 18.851 59.1697C17.5083 58.6157 16.2878 57.8026 15.2593 56.7769C14.2308 55.7511 13.4144 54.5329 12.8567 53.1917C12.299 51.8504 12.011 50.4125 12.009 48.9599C12.0106 47.5071 12.2983 46.0689 12.8558 44.7273C13.4134 43.3857 14.2297 42.1671 15.2582 41.1411C16.2868 40.1151 17.5074 39.3017 18.8503 38.7475C20.1932 38.1932 21.6322 37.909 23.085 37.9109H23.325C24.114 30.2609 29.502 24.0209 39.006 24.0209ZM13.104 36.4859C13.3124 36.9887 13.3314 37.55 13.1577 38.0657C12.9839 38.5815 12.6291 39.0168 12.159 39.2909L11.886 39.4259L9.105 40.5779C8.57893 40.7924 7.99123 40.7998 7.45987 40.5989C6.92851 40.398 6.49283 40.0034 6.24029 39.4946C5.98776 38.9857 5.93706 38.4001 6.09838 37.8554C6.25969 37.3107 6.62108 36.8472 7.11 36.5579L7.383 36.4199L10.164 35.2709C10.715 35.0424 11.3342 35.0419 11.8855 35.2698C12.4369 35.4976 12.8751 35.9351 13.104 36.4859ZM32.565 21.9869L32.049 22.1609C26.697 24.0509 22.863 28.1759 21.204 33.6299L20.994 34.3799L20.82 35.0939L20.202 35.2109C18.4072 35.5879 16.7046 36.3159 15.192 37.3529C13.817 34.9896 13.3034 32.2229 13.7386 29.5235C14.1738 26.8242 15.5309 24.359 17.5789 22.5476C19.627 20.7361 22.2394 19.6903 24.9717 19.5881C27.704 19.4859 30.3873 20.3336 32.565 21.9869ZM8.82 22.0799L9.135 22.1849L11.916 23.3369C12.4384 23.5559 12.8589 23.9639 13.0937 24.4793C13.3285 24.9948 13.3603 25.5798 13.1826 26.1176C13.005 26.6555 12.6311 27.1065 12.1354 27.3807C11.6398 27.655 11.059 27.7322 10.509 27.5969L10.2 27.4979L7.419 26.3459C6.89662 26.127 6.47606 25.719 6.24126 25.2036C6.00646 24.6881 5.97472 24.1031 6.15235 23.5652C6.32999 23.0274 6.70394 22.5764 7.19955 22.3021C7.69516 22.0279 8.27596 21.9507 8.826 22.0859M20.271 13.1279L20.406 13.4009L21.558 16.1819C21.7724 16.708 21.7799 17.2957 21.579 17.8271C21.378 18.3584 20.9835 18.7941 20.4746 19.0466C19.9658 19.2992 19.3802 19.3499 18.8355 19.1886C18.2908 19.0272 17.8273 18.6659 17.538 18.1769L17.4 17.9039L16.251 15.1229C16.0366 14.5969 16.0291 14.0092 16.23 13.4778C16.431 12.9465 16.8255 12.5108 17.3344 12.2582C17.8432 12.0057 18.4288 11.955 18.9735 12.1163C19.5182 12.2776 19.9817 12.639 20.271 13.1279ZM33.333 12.1709C33.8311 12.3777 34.2384 12.7564 34.4806 13.2382C34.7229 13.72 34.7841 14.2728 34.653 14.7959L34.548 15.1109L33.399 17.8919C33.1834 18.4193 32.7757 18.8453 32.2583 19.0838C31.7409 19.3223 31.1522 19.3556 30.6112 19.1771C30.0701 18.9985 29.617 18.6213 29.3432 18.1216C29.0694 17.622 28.9953 17.0371 29.136 16.4849L29.241 16.1669L30.393 13.3889C30.506 13.1159 30.6718 12.8678 30.8807 12.6588C31.0896 12.4498 31.3377 12.2841 31.6107 12.171C31.8837 12.0579 32.1763 11.9996 32.4718 11.9996C32.7674 11.9996 33.06 12.0578 33.333 12.1709Z" fill="#FF8412"/>
</svg>
