<svg width="27" height="27" viewBox="0 0 27 27" fill="none" xmlns="http://www.w3.org/2000/svg">
<g opacity="0.8">
<path d="M13.5459 21.5394C13.734 21.6202 13.9487 21.6202 14.1368 21.5394C16.3613 20.5836 20.925 16.0247 20.925 11.711C20.925 7.85282 17.7552 4.725 13.8452 4.725H13.8302C9.91982 4.725 6.75 7.85282 6.75 11.711C6.75 16.025 11.3207 20.584 13.5456 21.5394H13.5459ZM13.8375 8.89532C15.3382 8.89532 16.5547 10.0957 16.5547 11.5765C16.5547 13.0574 15.3382 14.2578 13.8375 14.2578C12.3368 14.2578 11.1203 13.0574 11.1203 11.5765C11.1203 10.0957 12.3368 8.89532 13.8375 8.89532Z" fill="white"/>
</g>
</svg>
