<svg width="41" height="41" viewBox="0 0 41 41" fill="none" xmlns="http://www.w3.org/2000/svg">
<path d="M20.5697 32.708C20.8553 32.8307 21.1814 32.8307 21.467 32.708C24.845 31.2566 31.775 24.3338 31.775 17.7834C31.775 11.9247 26.9616 7.175 21.0242 7.175H21.0013C15.0634 7.175 10.25 11.9247 10.25 17.7834C10.25 24.3343 17.1907 31.2571 20.5692 32.708H20.5697ZM21.0125 13.5077C23.2914 13.5077 25.1387 15.3305 25.1387 17.5792C25.1387 19.8279 23.2914 21.6507 21.0125 21.6507C18.7336 21.6507 16.8863 19.8279 16.8863 17.5792C16.8863 15.3305 18.7336 13.5077 21.0125 13.5077Z" fill="white"/>
</svg>
