<svg width="17" height="17" viewBox="0 0 17 17" fill="none" xmlns="http://www.w3.org/2000/svg">
<path d="M8.5289 13.5619C8.64731 13.6127 8.78253 13.6127 8.90093 13.5619C10.3016 12.9601 13.175 10.0896 13.175 7.37361C13.175 4.94438 11.1792 2.97501 8.71734 2.97501H8.70787C6.24581 2.97501 4.25 4.94438 4.25 7.37361C4.25 10.0898 7.12784 12.9603 8.52869 13.5619H8.5289ZM8.7125 5.60076C9.65741 5.60076 10.4233 6.35655 10.4233 7.28894C10.4233 8.22133 9.65741 8.97712 8.7125 8.97712C7.76759 8.97712 7.00165 8.22133 7.00165 7.28894C7.00165 6.35655 7.76759 5.60076 8.7125 5.60076Z" fill="white"/>
</svg>
