<svg width="10" height="10" viewBox="0 0 10 10" fill="none" xmlns="http://www.w3.org/2000/svg">
<path d="M8.8136 4.02877L6.08321 3.61324L4.86265 1.02205C4.82931 0.951102 4.77447 0.89367 4.70672 0.85876C4.53681 0.770923 4.33033 0.844121 4.24538 1.02205L3.02482 3.61324L0.294423 4.02877C0.219146 4.04004 0.150322 4.0772 0.0976279 4.1335C0.0339241 4.20207 -0.0011796 4.29431 3.02676e-05 4.38997C0.00124013 4.48562 0.0386646 4.57686 0.10408 4.64363L2.07956 6.6605L1.61284 9.50845C1.6019 9.5747 1.6089 9.64283 1.63305 9.70513C1.6572 9.76742 1.69754 9.82139 1.74949 9.8609C1.80144 9.90041 1.86292 9.92388 1.92696 9.92866C1.991 9.93345 2.05504 9.91934 2.11182 9.88795L4.55401 8.54337L6.99621 9.88795C7.06288 9.92511 7.14031 9.9375 7.21451 9.92399C7.40163 9.8902 7.52745 9.70439 7.49518 9.50845L7.02847 6.6605L9.00395 4.64363C9.05771 4.58845 9.0932 4.51638 9.10396 4.43755C9.13299 4.24048 9.00179 4.05805 8.8136 4.02877Z" fill="#FF9B3F"/>
</svg>
